<?xml version="1.0" encoding="utf-8"?>
<svg width="540" height="540" viewBox="0 0 540 540" xmlns="http://www.w3.org/2000/svg" xmlns:xlink="http://www.w3.org/1999/xlink">
<rect width="540" height="540" fill="#ffffff"/>
<defs>
<rect id="p" width="12" height="12" />
</defs>
<g>
<use x="24" y="24" xlink:href="#p" fill="#000000" />
<use x="36" y="24" xlink:href="#p" fill="#000000" />
<use x="48" y="24" xlink:href="#p" fill="#000000" />
<use x="60" y="24" xlink:href="#p" fill="#000000" />
<use x="72" y="24" xlink:href="#p" fill="#000000" />
<use x="84" y="24" xlink:href="#p" fill="#000000" />
<use x="96" y="24" xlink:href="#p" fill="#000000" />
<use x="120" y="24" xlink:href="#p" fill="#000000" />
<use x="156" y="24" xlink:href="#p" fill="#000000" />
<use x="180" y="24" xlink:href="#p" fill="#000000" />
<use x="204" y="24" xlink:href="#p" fill="#000000" />
<use x="216" y="24" xlink:href="#p" fill="#000000" />
<use x="228" y="24" xlink:href="#p" fill="#000000" />
<use x="252" y="24" xlink:href="#p" fill="#000000" />
<use x="276" y="24" xlink:href="#p" fill="#000000" />
<use x="288" y="24" xlink:href="#p" fill="#000000" />
<use x="300" y="24" xlink:href="#p" fill="#000000" />
<use x="336" y="24" xlink:href="#p" fill="#000000" />
<use x="360" y="24" xlink:href="#p" fill="#000000" />
<use x="372" y="24" xlink:href="#p" fill="#000000" />
<use x="384" y="24" xlink:href="#p" fill="#000000" />
<use x="396" y="24" xlink:href="#p" fill="#000000" />
<use x="432" y="24" xlink:href="#p" fill="#000000" />
<use x="444" y="24" xlink:href="#p" fill="#000000" />
<use x="456" y="24" xlink:href="#p" fill="#000000" />
<use x="468" y="24" xlink:href="#p" fill="#000000" />
<use x="480" y="24" xlink:href="#p" fill="#000000" />
<use x="492" y="24" xlink:href="#p" fill="#000000" />
<use x="504" y="24" xlink:href="#p" fill="#000000" />
<use x="24" y="36" xlink:href="#p" fill="#000000" />
<use x="96" y="36" xlink:href="#p" fill="#000000" />
<use x="132" y="36" xlink:href="#p" fill="#000000" />
<use x="192" y="36" xlink:href="#p" fill="#000000" />
<use x="216" y="36" xlink:href="#p" fill="#000000" />
<use x="240" y="36" xlink:href="#p" fill="#000000" />
<use x="252" y="36" xlink:href="#p" fill="#000000" />
<use x="300" y="36" xlink:href="#p" fill="#000000" />
<use x="312" y="36" xlink:href="#p" fill="#000000" />
<use x="324" y="36" xlink:href="#p" fill="#000000" />
<use x="348" y="36" xlink:href="#p" fill="#000000" />
<use x="360" y="36" xlink:href="#p" fill="#000000" />
<use x="384" y="36" xlink:href="#p" fill="#000000" />
<use x="432" y="36" xlink:href="#p" fill="#000000" />
<use x="504" y="36" xlink:href="#p" fill="#000000" />
<use x="24" y="48" xlink:href="#p" fill="#000000" />
<use x="48" y="48" xlink:href="#p" fill="#000000" />
<use x="60" y="48" xlink:href="#p" fill="#000000" />
<use x="72" y="48" xlink:href="#p" fill="#000000" />
<use x="96" y="48" xlink:href="#p" fill="#000000" />
<use x="132" y="48" xlink:href="#p" fill="#000000" />
<use x="156" y="48" xlink:href="#p" fill="#000000" />
<use x="192" y="48" xlink:href="#p" fill="#000000" />
<use x="216" y="48" xlink:href="#p" fill="#000000" />
<use x="240" y="48" xlink:href="#p" fill="#000000" />
<use x="252" y="48" xlink:href="#p" fill="#000000" />
<use x="264" y="48" xlink:href="#p" fill="#000000" />
<use x="276" y="48" xlink:href="#p" fill="#000000" />
<use x="288" y="48" xlink:href="#p" fill="#000000" />
<use x="348" y="48" xlink:href="#p" fill="#000000" />
<use x="372" y="48" xlink:href="#p" fill="#000000" />
<use x="384" y="48" xlink:href="#p" fill="#000000" />
<use x="432" y="48" xlink:href="#p" fill="#000000" />
<use x="456" y="48" xlink:href="#p" fill="#000000" />
<use x="468" y="48" xlink:href="#p" fill="#000000" />
<use x="480" y="48" xlink:href="#p" fill="#000000" />
<use x="504" y="48" xlink:href="#p" fill="#000000" />
<use x="24" y="60" xlink:href="#p" fill="#000000" />
<use x="48" y="60" xlink:href="#p" fill="#000000" />
<use x="60" y="60" xlink:href="#p" fill="#000000" />
<use x="72" y="60" xlink:href="#p" fill="#000000" />
<use x="96" y="60" xlink:href="#p" fill="#000000" />
<use x="120" y="60" xlink:href="#p" fill="#000000" />
<use x="132" y="60" xlink:href="#p" fill="#000000" />
<use x="144" y="60" xlink:href="#p" fill="#000000" />
<use x="168" y="60" xlink:href="#p" fill="#000000" />
<use x="180" y="60" xlink:href="#p" fill="#000000" />
<use x="192" y="60" xlink:href="#p" fill="#000000" />
<use x="216" y="60" xlink:href="#p" fill="#000000" />
<use x="240" y="60" xlink:href="#p" fill="#000000" />
<use x="252" y="60" xlink:href="#p" fill="#000000" />
<use x="264" y="60" xlink:href="#p" fill="#000000" />
<use x="288" y="60" xlink:href="#p" fill="#000000" />
<use x="300" y="60" xlink:href="#p" fill="#000000" />
<use x="312" y="60" xlink:href="#p" fill="#000000" />
<use x="324" y="60" xlink:href="#p" fill="#000000" />
<use x="360" y="60" xlink:href="#p" fill="#000000" />
<use x="372" y="60" xlink:href="#p" fill="#000000" />
<use x="384" y="60" xlink:href="#p" fill="#000000" />
<use x="432" y="60" xlink:href="#p" fill="#000000" />
<use x="456" y="60" xlink:href="#p" fill="#000000" />
<use x="468" y="60" xlink:href="#p" fill="#000000" />
<use x="480" y="60" xlink:href="#p" fill="#000000" />
<use x="504" y="60" xlink:href="#p" fill="#000000" />
<use x="24" y="72" xlink:href="#p" fill="#000000" />
<use x="48" y="72" xlink:href="#p" fill="#000000" />
<use x="60" y="72" xlink:href="#p" fill="#000000" />
<use x="72" y="72" xlink:href="#p" fill="#000000" />
<use x="96" y="72" xlink:href="#p" fill="#000000" />
<use x="132" y="72" xlink:href="#p" fill="#000000" />
<use x="204" y="72" xlink:href="#p" fill="#000000" />
<use x="240" y="72" xlink:href="#p" fill="#000000" />
<use x="276" y="72" xlink:href="#p" fill="#000000" />
<use x="288" y="72" xlink:href="#p" fill="#000000" />
<use x="348" y="72" xlink:href="#p" fill="#000000" />
<use x="384" y="72" xlink:href="#p" fill="#000000" />
<use x="396" y="72" xlink:href="#p" fill="#000000" />
<use x="432" y="72" xlink:href="#p" fill="#000000" />
<use x="456" y="72" xlink:href="#p" fill="#000000" />
<use x="468" y="72" xlink:href="#p" fill="#000000" />
<use x="480" y="72" xlink:href="#p" fill="#000000" />
<use x="504" y="72" xlink:href="#p" fill="#000000" />
<use x="24" y="84" xlink:href="#p" fill="#000000" />
<use x="96" y="84" xlink:href="#p" fill="#000000" />
<use x="180" y="84" xlink:href="#p" fill="#000000" />
<use x="192" y="84" xlink:href="#p" fill="#000000" />
<use x="204" y="84" xlink:href="#p" fill="#000000" />
<use x="216" y="84" xlink:href="#p" fill="#000000" />
<use x="228" y="84" xlink:href="#p" fill="#000000" />
<use x="240" y="84" xlink:href="#p" fill="#000000" />
<use x="264" y="84" xlink:href="#p" fill="#000000" />
<use x="276" y="84" xlink:href="#p" fill="#000000" />
<use x="288" y="84" xlink:href="#p" fill="#000000" />
<use x="312" y="84" xlink:href="#p" fill="#000000" />
<use x="324" y="84" xlink:href="#p" fill="#000000" />
<use x="336" y="84" xlink:href="#p" fill="#000000" />
<use x="348" y="84" xlink:href="#p" fill="#000000" />
<use x="360" y="84" xlink:href="#p" fill="#000000" />
<use x="372" y="84" xlink:href="#p" fill="#000000" />
<use x="396" y="84" xlink:href="#p" fill="#000000" />
<use x="432" y="84" xlink:href="#p" fill="#000000" />
<use x="504" y="84" xlink:href="#p" fill="#000000" />
<use x="24" y="96" xlink:href="#p" fill="#000000" />
<use x="36" y="96" xlink:href="#p" fill="#000000" />
<use x="48" y="96" xlink:href="#p" fill="#000000" />
<use x="60" y="96" xlink:href="#p" fill="#000000" />
<use x="72" y="96" xlink:href="#p" fill="#000000" />
<use x="84" y="96" xlink:href="#p" fill="#000000" />
<use x="96" y="96" xlink:href="#p" fill="#000000" />
<use x="120" y="96" xlink:href="#p" fill="#000000" />
<use x="144" y="96" xlink:href="#p" fill="#000000" />
<use x="168" y="96" xlink:href="#p" fill="#000000" />
<use x="192" y="96" xlink:href="#p" fill="#000000" />
<use x="216" y="96" xlink:href="#p" fill="#000000" />
<use x="240" y="96" xlink:href="#p" fill="#000000" />
<use x="264" y="96" xlink:href="#p" fill="#000000" />
<use x="288" y="96" xlink:href="#p" fill="#000000" />
<use x="312" y="96" xlink:href="#p" fill="#000000" />
<use x="336" y="96" xlink:href="#p" fill="#000000" />
<use x="360" y="96" xlink:href="#p" fill="#000000" />
<use x="384" y="96" xlink:href="#p" fill="#000000" />
<use x="408" y="96" xlink:href="#p" fill="#000000" />
<use x="432" y="96" xlink:href="#p" fill="#000000" />
<use x="444" y="96" xlink:href="#p" fill="#000000" />
<use x="456" y="96" xlink:href="#p" fill="#000000" />
<use x="468" y="96" xlink:href="#p" fill="#000000" />
<use x="480" y="96" xlink:href="#p" fill="#000000" />
<use x="492" y="96" xlink:href="#p" fill="#000000" />
<use x="504" y="96" xlink:href="#p" fill="#000000" />
<use x="132" y="108" xlink:href="#p" fill="#000000" />
<use x="168" y="108" xlink:href="#p" fill="#000000" />
<use x="180" y="108" xlink:href="#p" fill="#000000" />
<use x="192" y="108" xlink:href="#p" fill="#000000" />
<use x="252" y="108" xlink:href="#p" fill="#000000" />
<use x="264" y="108" xlink:href="#p" fill="#000000" />
<use x="276" y="108" xlink:href="#p" fill="#000000" />
<use x="300" y="108" xlink:href="#p" fill="#000000" />
<use x="312" y="108" xlink:href="#p" fill="#000000" />
<use x="336" y="108" xlink:href="#p" fill="#000000" />
<use x="348" y="108" xlink:href="#p" fill="#000000" />
<use x="360" y="108" xlink:href="#p" fill="#000000" />
<use x="372" y="108" xlink:href="#p" fill="#000000" />
<use x="384" y="108" xlink:href="#p" fill="#000000" />
<use x="408" y="108" xlink:href="#p" fill="#000000" />
<use x="48" y="120" xlink:href="#p" fill="#000000" />
<use x="72" y="120" xlink:href="#p" fill="#000000" />
<use x="84" y="120" xlink:href="#p" fill="#000000" />
<use x="96" y="120" xlink:href="#p" fill="#000000" />
<use x="120" y="120" xlink:href="#p" fill="#000000" />
<use x="144" y="120" xlink:href="#p" fill="#000000" />
<use x="168" y="120" xlink:href="#p" fill="#000000" />
<use x="180" y="120" xlink:href="#p" fill="#000000" />
<use x="192" y="120" xlink:href="#p" fill="#000000" />
<use x="204" y="120" xlink:href="#p" fill="#000000" />
<use x="216" y="120" xlink:href="#p" fill="#000000" />
<use x="228" y="120" xlink:href="#p" fill="#000000" />
<use x="240" y="120" xlink:href="#p" fill="#000000" />
<use x="288" y="120" xlink:href="#p" fill="#000000" />
<use x="300" y="120" xlink:href="#p" fill="#000000" />
<use x="336" y="120" xlink:href="#p" fill="#000000" />
<use x="360" y="120" xlink:href="#p" fill="#000000" />
<use x="372" y="120" xlink:href="#p" fill="#000000" />
<use x="420" y="120" xlink:href="#p" fill="#000000" />
<use x="468" y="120" xlink:href="#p" fill="#000000" />
<use x="504" y="120" xlink:href="#p" fill="#000000" />
<use x="36" y="132" xlink:href="#p" fill="#000000" />
<use x="48" y="132" xlink:href="#p" fill="#000000" />
<use x="60" y="132" xlink:href="#p" fill="#000000" />
<use x="72" y="132" xlink:href="#p" fill="#000000" />
<use x="84" y="132" xlink:href="#p" fill="#000000" />
<use x="108" y="132" xlink:href="#p" fill="#000000" />
<use x="132" y="132" xlink:href="#p" fill="#000000" />
<use x="168" y="132" xlink:href="#p" fill="#000000" />
<use x="180" y="132" xlink:href="#p" fill="#000000" />
<use x="192" y="132" xlink:href="#p" fill="#000000" />
<use x="204" y="132" xlink:href="#p" fill="#000000" />
<use x="264" y="132" xlink:href="#p" fill="#000000" />
<use x="276" y="132" xlink:href="#p" fill="#000000" />
<use x="288" y="132" xlink:href="#p" fill="#000000" />
<use x="312" y="132" xlink:href="#p" fill="#000000" />
<use x="360" y="132" xlink:href="#p" fill="#000000" />
<use x="384" y="132" xlink:href="#p" fill="#000000" />
<use x="408" y="132" xlink:href="#p" fill="#000000" />
<use x="420" y="132" xlink:href="#p" fill="#000000" />
<use x="432" y="132" xlink:href="#p" fill="#000000" />
<use x="444" y="132" xlink:href="#p" fill="#000000" />
<use x="456" y="132" xlink:href="#p" fill="#000000" />
<use x="468" y="132" xlink:href="#p" fill="#000000" />
<use x="480" y="132" xlink:href="#p" fill="#000000" />
<use x="492" y="132" xlink:href="#p" fill="#000000" />
<use x="24" y="144" xlink:href="#p" fill="#000000" />
<use x="60" y="144" xlink:href="#p" fill="#000000" />
<use x="96" y="144" xlink:href="#p" fill="#000000" />
<use x="108" y="144" xlink:href="#p" fill="#000000" />
<use x="144" y="144" xlink:href="#p" fill="#000000" />
<use x="180" y="144" xlink:href="#p" fill="#000000" />
<use x="192" y="144" xlink:href="#p" fill="#000000" />
<use x="204" y="144" xlink:href="#p" fill="#000000" />
<use x="240" y="144" xlink:href="#p" fill="#000000" />
<use x="264" y="144" xlink:href="#p" fill="#000000" />
<use x="276" y="144" xlink:href="#p" fill="#000000" />
<use x="288" y="144" xlink:href="#p" fill="#000000" />
<use x="300" y="144" xlink:href="#p" fill="#000000" />
<use x="312" y="144" xlink:href="#p" fill="#000000" />
<use x="324" y="144" xlink:href="#p" fill="#000000" />
<use x="360" y="144" xlink:href="#p" fill="#000000" />
<use x="372" y="144" xlink:href="#p" fill="#000000" />
<use x="384" y="144" xlink:href="#p" fill="#000000" />
<use x="420" y="144" xlink:href="#p" fill="#000000" />
<use x="456" y="144" xlink:href="#p" fill="#000000" />
<use x="480" y="144" xlink:href="#p" fill="#000000" />
<use x="24" y="156" xlink:href="#p" fill="#000000" />
<use x="60" y="156" xlink:href="#p" fill="#000000" />
<use x="84" y="156" xlink:href="#p" fill="#000000" />
<use x="108" y="156" xlink:href="#p" fill="#000000" />
<use x="120" y="156" xlink:href="#p" fill="#000000" />
<use x="132" y="156" xlink:href="#p" fill="#000000" />
<use x="156" y="156" xlink:href="#p" fill="#000000" />
<use x="180" y="156" xlink:href="#p" fill="#000000" />
<use x="192" y="156" xlink:href="#p" fill="#000000" />
<use x="204" y="156" xlink:href="#p" fill="#000000" />
<use x="240" y="156" xlink:href="#p" fill="#000000" />
<use x="252" y="156" xlink:href="#p" fill="#000000" />
<use x="288" y="156" xlink:href="#p" fill="#000000" />
<use x="348" y="156" xlink:href="#p" fill="#000000" />
<use x="360" y="156" xlink:href="#p" fill="#000000" />
<use x="372" y="156" xlink:href="#p" fill="#000000" />
<use x="384" y="156" xlink:href="#p" fill="#000000" />
<use x="408" y="156" xlink:href="#p" fill="#000000" />
<use x="420" y="156" xlink:href="#p" fill="#000000" />
<use x="432" y="156" xlink:href="#p" fill="#000000" />
<use x="456" y="156" xlink:href="#p" fill="#000000" />
<use x="492" y="156" xlink:href="#p" fill="#000000" />
<use x="504" y="156" xlink:href="#p" fill="#000000" />
<use x="24" y="168" xlink:href="#p" fill="#000000" />
<use x="36" y="168" xlink:href="#p" fill="#000000" />
<use x="96" y="168" xlink:href="#p" fill="#000000" />
<use x="108" y="168" xlink:href="#p" fill="#000000" />
<use x="120" y="168" xlink:href="#p" fill="#000000" />
<use x="132" y="168" xlink:href="#p" fill="#000000" />
<use x="168" y="168" xlink:href="#p" fill="#000000" />
<use x="180" y="168" xlink:href="#p" fill="#000000" />
<use x="192" y="168" xlink:href="#p" fill="#000000" />
<use x="276" y="168" xlink:href="#p" fill="#000000" />
<use x="288" y="168" xlink:href="#p" fill="#000000" />
<use x="336" y="168" xlink:href="#p" fill="#000000" />
<use x="348" y="168" xlink:href="#p" fill="#000000" />
<use x="360" y="168" xlink:href="#p" fill="#000000" />
<use x="372" y="168" xlink:href="#p" fill="#000000" />
<use x="396" y="168" xlink:href="#p" fill="#000000" />
<use x="420" y="168" xlink:href="#p" fill="#000000" />
<use x="468" y="168" xlink:href="#p" fill="#000000" />
<use x="492" y="168" xlink:href="#p" fill="#000000" />
<use x="504" y="168" xlink:href="#p" fill="#000000" />
<use x="36" y="180" xlink:href="#p" fill="#000000" />
<use x="48" y="180" xlink:href="#p" fill="#000000" />
<use x="60" y="180" xlink:href="#p" fill="#000000" />
<use x="84" y="180" xlink:href="#p" fill="#000000" />
<use x="156" y="180" xlink:href="#p" fill="#000000" />
<use x="180" y="180" xlink:href="#p" fill="#000000" />
<use x="192" y="180" xlink:href="#p" fill="#000000" />
<use x="204" y="180" xlink:href="#p" fill="#000000" />
<use x="240" y="180" xlink:href="#p" fill="#000000" />
<use x="264" y="180" xlink:href="#p" fill="#000000" />
<use x="288" y="180" xlink:href="#p" fill="#000000" />
<use x="300" y="180" xlink:href="#p" fill="#000000" />
<use x="324" y="180" xlink:href="#p" fill="#000000" />
<use x="348" y="180" xlink:href="#p" fill="#000000" />
<use x="360" y="180" xlink:href="#p" fill="#000000" />
<use x="384" y="180" xlink:href="#p" fill="#000000" />
<use x="396" y="180" xlink:href="#p" fill="#000000" />
<use x="420" y="180" xlink:href="#p" fill="#000000" />
<use x="468" y="180" xlink:href="#p" fill="#000000" />
<use x="492" y="180" xlink:href="#p" fill="#000000" />
<use x="504" y="180" xlink:href="#p" fill="#000000" />
<use x="48" y="192" xlink:href="#p" fill="#000000" />
<use x="96" y="192" xlink:href="#p" fill="#000000" />
<use x="108" y="192" xlink:href="#p" fill="#000000" />
<use x="132" y="192" xlink:href="#p" fill="#000000" />
<use x="144" y="192" xlink:href="#p" fill="#000000" />
<use x="180" y="192" xlink:href="#p" fill="#000000" />
<use x="204" y="192" xlink:href="#p" fill="#000000" />
<use x="240" y="192" xlink:href="#p" fill="#000000" />
<use x="276" y="192" xlink:href="#p" fill="#000000" />
<use x="288" y="192" xlink:href="#p" fill="#000000" />
<use x="312" y="192" xlink:href="#p" fill="#000000" />
<use x="336" y="192" xlink:href="#p" fill="#000000" />
<use x="348" y="192" xlink:href="#p" fill="#000000" />
<use x="360" y="192" xlink:href="#p" fill="#000000" />
<use x="432" y="192" xlink:href="#p" fill="#000000" />
<use x="444" y="192" xlink:href="#p" fill="#000000" />
<use x="468" y="192" xlink:href="#p" fill="#000000" />
<use x="480" y="192" xlink:href="#p" fill="#000000" />
<use x="492" y="192" xlink:href="#p" fill="#000000" />
<use x="36" y="204" xlink:href="#p" fill="#000000" />
<use x="60" y="204" xlink:href="#p" fill="#000000" />
<use x="120" y="204" xlink:href="#p" fill="#000000" />
<use x="228" y="204" xlink:href="#p" fill="#000000" />
<use x="264" y="204" xlink:href="#p" fill="#000000" />
<use x="276" y="204" xlink:href="#p" fill="#000000" />
<use x="288" y="204" xlink:href="#p" fill="#000000" />
<use x="312" y="204" xlink:href="#p" fill="#000000" />
<use x="324" y="204" xlink:href="#p" fill="#000000" />
<use x="336" y="204" xlink:href="#p" fill="#000000" />
<use x="360" y="204" xlink:href="#p" fill="#000000" />
<use x="372" y="204" xlink:href="#p" fill="#000000" />
<use x="384" y="204" xlink:href="#p" fill="#000000" />
<use x="396" y="204" xlink:href="#p" fill="#000000" />
<use x="432" y="204" xlink:href="#p" fill="#000000" />
<use x="444" y="204" xlink:href="#p" fill="#000000" />
<use x="24" y="216" xlink:href="#p" fill="#000000" />
<use x="48" y="216" xlink:href="#p" fill="#000000" />
<use x="96" y="216" xlink:href="#p" fill="#000000" />
<use x="120" y="216" xlink:href="#p" fill="#000000" />
<use x="180" y="216" xlink:href="#p" fill="#000000" />
<use x="204" y="216" xlink:href="#p" fill="#000000" />
<use x="228" y="216" xlink:href="#p" fill="#000000" />
<use x="252" y="216" xlink:href="#p" fill="#000000" />
<use x="264" y="216" xlink:href="#p" fill="#000000" />
<use x="288" y="216" xlink:href="#p" fill="#000000" />
<use x="300" y="216" xlink:href="#p" fill="#000000" />
<use x="324" y="216" xlink:href="#p" fill="#000000" />
<use x="348" y="216" xlink:href="#p" fill="#000000" />
<use x="360" y="216" xlink:href="#p" fill="#000000" />
<use x="372" y="216" xlink:href="#p" fill="#000000" />
<use x="408" y="216" xlink:href="#p" fill="#000000" />
<use x="432" y="216" xlink:href="#p" fill="#000000" />
<use x="444" y="216" xlink:href="#p" fill="#000000" />
<use x="468" y="216" xlink:href="#p" fill="#000000" />
<use x="504" y="216" xlink:href="#p" fill="#000000" />
<use x="24" y="228" xlink:href="#p" fill="#000000" />
<use x="60" y="228" xlink:href="#p" fill="#000000" />
<use x="84" y="228" xlink:href="#p" fill="#000000" />
<use x="108" y="228" xlink:href="#p" fill="#000000" />
<use x="120" y="228" xlink:href="#p" fill="#000000" />
<use x="156" y="228" xlink:href="#p" fill="#000000" />
<use x="168" y="228" xlink:href="#p" fill="#000000" />
<use x="180" y="228" xlink:href="#p" fill="#000000" />
<use x="216" y="228" xlink:href="#p" fill="#000000" />
<use x="228" y="228" xlink:href="#p" fill="#000000" />
<use x="240" y="228" xlink:href="#p" fill="#000000" />
<use x="252" y="228" xlink:href="#p" fill="#000000" />
<use x="264" y="228" xlink:href="#p" fill="#000000" />
<use x="276" y="228" xlink:href="#p" fill="#000000" />
<use x="288" y="228" xlink:href="#p" fill="#000000" />
<use x="324" y="228" xlink:href="#p" fill="#000000" />
<use x="336" y="228" xlink:href="#p" fill="#000000" />
<use x="372" y="228" xlink:href="#p" fill="#000000" />
<use x="432" y="228" xlink:href="#p" fill="#000000" />
<use x="480" y="228" xlink:href="#p" fill="#000000" />
<use x="492" y="228" xlink:href="#p" fill="#000000" />
<use x="504" y="228" xlink:href="#p" fill="#000000" />
<use x="24" y="240" xlink:href="#p" fill="#000000" />
<use x="84" y="240" xlink:href="#p" fill="#000000" />
<use x="96" y="240" xlink:href="#p" fill="#000000" />
<use x="120" y="240" xlink:href="#p" fill="#000000" />
<use x="132" y="240" xlink:href="#p" fill="#000000" />
<use x="144" y="240" xlink:href="#p" fill="#000000" />
<use x="180" y="240" xlink:href="#p" fill="#000000" />
<use x="204" y="240" xlink:href="#p" fill="#000000" />
<use x="228" y="240" xlink:href="#p" fill="#000000" />
<use x="240" y="240" xlink:href="#p" fill="#000000" />
<use x="252" y="240" xlink:href="#p" fill="#000000" />
<use x="276" y="240" xlink:href="#p" fill="#000000" />
<use x="348" y="240" xlink:href="#p" fill="#000000" />
<use x="360" y="240" xlink:href="#p" fill="#000000" />
<use x="384" y="240" xlink:href="#p" fill="#000000" />
<use x="420" y="240" xlink:href="#p" fill="#000000" />
<use x="456" y="240" xlink:href="#p" fill="#000000" />
<use x="468" y="240" xlink:href="#p" fill="#000000" />
<use x="480" y="240" xlink:href="#p" fill="#000000" />
<use x="492" y="240" xlink:href="#p" fill="#000000" />
<use x="504" y="240" xlink:href="#p" fill="#000000" />
<use x="24" y="252" xlink:href="#p" fill="#000000" />
<use x="48" y="252" xlink:href="#p" fill="#000000" />
<use x="60" y="252" xlink:href="#p" fill="#000000" />
<use x="108" y="252" xlink:href="#p" fill="#000000" />
<use x="132" y="252" xlink:href="#p" fill="#000000" />
<use x="144" y="252" xlink:href="#p" fill="#000000" />
<use x="168" y="252" xlink:href="#p" fill="#000000" />
<use x="264" y="252" xlink:href="#p" fill="#000000" />
<use x="312" y="252" xlink:href="#p" fill="#000000" />
<use x="324" y="252" xlink:href="#p" fill="#000000" />
<use x="360" y="252" xlink:href="#p" fill="#000000" />
<use x="372" y="252" xlink:href="#p" fill="#000000" />
<use x="384" y="252" xlink:href="#p" fill="#000000" />
<use x="408" y="252" xlink:href="#p" fill="#000000" />
<use x="432" y="252" xlink:href="#p" fill="#000000" />
<use x="444" y="252" xlink:href="#p" fill="#000000" />
<use x="480" y="252" xlink:href="#p" fill="#000000" />
<use x="492" y="252" xlink:href="#p" fill="#000000" />
<use x="24" y="264" xlink:href="#p" fill="#000000" />
<use x="36" y="264" xlink:href="#p" fill="#000000" />
<use x="48" y="264" xlink:href="#p" fill="#000000" />
<use x="84" y="264" xlink:href="#p" fill="#000000" />
<use x="96" y="264" xlink:href="#p" fill="#000000" />
<use x="132" y="264" xlink:href="#p" fill="#000000" />
<use x="144" y="264" xlink:href="#p" fill="#000000" />
<use x="168" y="264" xlink:href="#p" fill="#000000" />
<use x="180" y="264" xlink:href="#p" fill="#000000" />
<use x="192" y="264" xlink:href="#p" fill="#000000" />
<use x="228" y="264" xlink:href="#p" fill="#000000" />
<use x="252" y="264" xlink:href="#p" fill="#000000" />
<use x="288" y="264" xlink:href="#p" fill="#000000" />
<use x="300" y="264" xlink:href="#p" fill="#000000" />
<use x="348" y="264" xlink:href="#p" fill="#000000" />
<use x="384" y="264" xlink:href="#p" fill="#000000" />
<use x="396" y="264" xlink:href="#p" fill="#000000" />
<use x="408" y="264" xlink:href="#p" fill="#000000" />
<use x="420" y="264" xlink:href="#p" fill="#000000" />
<use x="432" y="264" xlink:href="#p" fill="#000000" />
<use x="444" y="264" xlink:href="#p" fill="#000000" />
<use x="456" y="264" xlink:href="#p" fill="#000000" />
<use x="480" y="264" xlink:href="#p" fill="#000000" />
<use x="504" y="264" xlink:href="#p" fill="#000000" />
<use x="24" y="276" xlink:href="#p" fill="#000000" />
<use x="36" y="276" xlink:href="#p" fill="#000000" />
<use x="48" y="276" xlink:href="#p" fill="#000000" />
<use x="60" y="276" xlink:href="#p" fill="#000000" />
<use x="84" y="276" xlink:href="#p" fill="#000000" />
<use x="120" y="276" xlink:href="#p" fill="#000000" />
<use x="132" y="276" xlink:href="#p" fill="#000000" />
<use x="144" y="276" xlink:href="#p" fill="#000000" />
<use x="168" y="276" xlink:href="#p" fill="#000000" />
<use x="180" y="276" xlink:href="#p" fill="#000000" />
<use x="192" y="276" xlink:href="#p" fill="#000000" />
<use x="204" y="276" xlink:href="#p" fill="#000000" />
<use x="216" y="276" xlink:href="#p" fill="#000000" />
<use x="228" y="276" xlink:href="#p" fill="#000000" />
<use x="240" y="276" xlink:href="#p" fill="#000000" />
<use x="276" y="276" xlink:href="#p" fill="#000000" />
<use x="312" y="276" xlink:href="#p" fill="#000000" />
<use x="336" y="276" xlink:href="#p" fill="#000000" />
<use x="372" y="276" xlink:href="#p" fill="#000000" />
<use x="384" y="276" xlink:href="#p" fill="#000000" />
<use x="408" y="276" xlink:href="#p" fill="#000000" />
<use x="420" y="276" xlink:href="#p" fill="#000000" />
<use x="432" y="276" xlink:href="#p" fill="#000000" />
<use x="444" y="276" xlink:href="#p" fill="#000000" />
<use x="468" y="276" xlink:href="#p" fill="#000000" />
<use x="492" y="276" xlink:href="#p" fill="#000000" />
<use x="504" y="276" xlink:href="#p" fill="#000000" />
<use x="84" y="288" xlink:href="#p" fill="#000000" />
<use x="96" y="288" xlink:href="#p" fill="#000000" />
<use x="108" y="288" xlink:href="#p" fill="#000000" />
<use x="168" y="288" xlink:href="#p" fill="#000000" />
<use x="180" y="288" xlink:href="#p" fill="#000000" />
<use x="192" y="288" xlink:href="#p" fill="#000000" />
<use x="204" y="288" xlink:href="#p" fill="#000000" />
<use x="228" y="288" xlink:href="#p" fill="#000000" />
<use x="264" y="288" xlink:href="#p" fill="#000000" />
<use x="288" y="288" xlink:href="#p" fill="#000000" />
<use x="300" y="288" xlink:href="#p" fill="#000000" />
<use x="312" y="288" xlink:href="#p" fill="#000000" />
<use x="324" y="288" xlink:href="#p" fill="#000000" />
<use x="348" y="288" xlink:href="#p" fill="#000000" />
<use x="360" y="288" xlink:href="#p" fill="#000000" />
<use x="372" y="288" xlink:href="#p" fill="#000000" />
<use x="384" y="288" xlink:href="#p" fill="#000000" />
<use x="420" y="288" xlink:href="#p" fill="#000000" />
<use x="444" y="288" xlink:href="#p" fill="#000000" />
<use x="456" y="288" xlink:href="#p" fill="#000000" />
<use x="480" y="288" xlink:href="#p" fill="#000000" />
<use x="492" y="288" xlink:href="#p" fill="#000000" />
<use x="504" y="288" xlink:href="#p" fill="#000000" />
<use x="48" y="300" xlink:href="#p" fill="#000000" />
<use x="60" y="300" xlink:href="#p" fill="#000000" />
<use x="84" y="300" xlink:href="#p" fill="#000000" />
<use x="132" y="300" xlink:href="#p" fill="#000000" />
<use x="144" y="300" xlink:href="#p" fill="#000000" />
<use x="168" y="300" xlink:href="#p" fill="#000000" />
<use x="180" y="300" xlink:href="#p" fill="#000000" />
<use x="192" y="300" xlink:href="#p" fill="#000000" />
<use x="228" y="300" xlink:href="#p" fill="#000000" />
<use x="240" y="300" xlink:href="#p" fill="#000000" />
<use x="252" y="300" xlink:href="#p" fill="#000000" />
<use x="264" y="300" xlink:href="#p" fill="#000000" />
<use x="300" y="300" xlink:href="#p" fill="#000000" />
<use x="324" y="300" xlink:href="#p" fill="#000000" />
<use x="336" y="300" xlink:href="#p" fill="#000000" />
<use x="348" y="300" xlink:href="#p" fill="#000000" />
<use x="360" y="300" xlink:href="#p" fill="#000000" />
<use x="372" y="300" xlink:href="#p" fill="#000000" />
<use x="408" y="300" xlink:href="#p" fill="#000000" />
<use x="420" y="300" xlink:href="#p" fill="#000000" />
<use x="444" y="300" xlink:href="#p" fill="#000000" />
<use x="468" y="300" xlink:href="#p" fill="#000000" />
<use x="24" y="312" xlink:href="#p" fill="#000000" />
<use x="72" y="312" xlink:href="#p" fill="#000000" />
<use x="96" y="312" xlink:href="#p" fill="#000000" />
<use x="108" y="312" xlink:href="#p" fill="#000000" />
<use x="120" y="312" xlink:href="#p" fill="#000000" />
<use x="168" y="312" xlink:href="#p" fill="#000000" />
<use x="180" y="312" xlink:href="#p" fill="#000000" />
<use x="192" y="312" xlink:href="#p" fill="#000000" />
<use x="204" y="312" xlink:href="#p" fill="#000000" />
<use x="240" y="312" xlink:href="#p" fill="#000000" />
<use x="264" y="312" xlink:href="#p" fill="#000000" />
<use x="276" y="312" xlink:href="#p" fill="#000000" />
<use x="300" y="312" xlink:href="#p" fill="#000000" />
<use x="324" y="312" xlink:href="#p" fill="#000000" />
<use x="336" y="312" xlink:href="#p" fill="#000000" />
<use x="360" y="312" xlink:href="#p" fill="#000000" />
<use x="372" y="312" xlink:href="#p" fill="#000000" />
<use x="384" y="312" xlink:href="#p" fill="#000000" />
<use x="396" y="312" xlink:href="#p" fill="#000000" />
<use x="408" y="312" xlink:href="#p" fill="#000000" />
<use x="432" y="312" xlink:href="#p" fill="#000000" />
<use x="456" y="312" xlink:href="#p" fill="#000000" />
<use x="480" y="312" xlink:href="#p" fill="#000000" />
<use x="36" y="324" xlink:href="#p" fill="#000000" />
<use x="48" y="324" xlink:href="#p" fill="#000000" />
<use x="84" y="324" xlink:href="#p" fill="#000000" />
<use x="120" y="324" xlink:href="#p" fill="#000000" />
<use x="144" y="324" xlink:href="#p" fill="#000000" />
<use x="156" y="324" xlink:href="#p" fill="#000000" />
<use x="204" y="324" xlink:href="#p" fill="#000000" />
<use x="216" y="324" xlink:href="#p" fill="#000000" />
<use x="252" y="324" xlink:href="#p" fill="#000000" />
<use x="360" y="324" xlink:href="#p" fill="#000000" />
<use x="420" y="324" xlink:href="#p" fill="#000000" />
<use x="432" y="324" xlink:href="#p" fill="#000000" />
<use x="492" y="324" xlink:href="#p" fill="#000000" />
<use x="504" y="324" xlink:href="#p" fill="#000000" />
<use x="48" y="336" xlink:href="#p" fill="#000000" />
<use x="60" y="336" xlink:href="#p" fill="#000000" />
<use x="96" y="336" xlink:href="#p" fill="#000000" />
<use x="132" y="336" xlink:href="#p" fill="#000000" />
<use x="204" y="336" xlink:href="#p" fill="#000000" />
<use x="216" y="336" xlink:href="#p" fill="#000000" />
<use x="240" y="336" xlink:href="#p" fill="#000000" />
<use x="252" y="336" xlink:href="#p" fill="#000000" />
<use x="300" y="336" xlink:href="#p" fill="#000000" />
<use x="312" y="336" xlink:href="#p" fill="#000000" />
<use x="336" y="336" xlink:href="#p" fill="#000000" />
<use x="384" y="336" xlink:href="#p" fill="#000000" />
<use x="432" y="336" xlink:href="#p" fill="#000000" />
<use x="444" y="336" xlink:href="#p" fill="#000000" />
<use x="480" y="336" xlink:href="#p" fill="#000000" />
<use x="492" y="336" xlink:href="#p" fill="#000000" />
<use x="504" y="336" xlink:href="#p" fill="#000000" />
<use x="24" y="348" xlink:href="#p" fill="#000000" />
<use x="60" y="348" xlink:href="#p" fill="#000000" />
<use x="84" y="348" xlink:href="#p" fill="#000000" />
<use x="108" y="348" xlink:href="#p" fill="#000000" />
<use x="120" y="348" xlink:href="#p" fill="#000000" />
<use x="144" y="348" xlink:href="#p" fill="#000000" />
<use x="156" y="348" xlink:href="#p" fill="#000000" />
<use x="180" y="348" xlink:href="#p" fill="#000000" />
<use x="192" y="348" xlink:href="#p" fill="#000000" />
<use x="216" y="348" xlink:href="#p" fill="#000000" />
<use x="228" y="348" xlink:href="#p" fill="#000000" />
<use x="240" y="348" xlink:href="#p" fill="#000000" />
<use x="252" y="348" xlink:href="#p" fill="#000000" />
<use x="288" y="348" xlink:href="#p" fill="#000000" />
<use x="300" y="348" xlink:href="#p" fill="#000000" />
<use x="312" y="348" xlink:href="#p" fill="#000000" />
<use x="336" y="348" xlink:href="#p" fill="#000000" />
<use x="348" y="348" xlink:href="#p" fill="#000000" />
<use x="372" y="348" xlink:href="#p" fill="#000000" />
<use x="408" y="348" xlink:href="#p" fill="#000000" />
<use x="456" y="348" xlink:href="#p" fill="#000000" />
<use x="492" y="348" xlink:href="#p" fill="#000000" />
<use x="504" y="348" xlink:href="#p" fill="#000000" />
<use x="84" y="360" xlink:href="#p" fill="#000000" />
<use x="96" y="360" xlink:href="#p" fill="#000000" />
<use x="120" y="360" xlink:href="#p" fill="#000000" />
<use x="156" y="360" xlink:href="#p" fill="#000000" />
<use x="192" y="360" xlink:href="#p" fill="#000000" />
<use x="204" y="360" xlink:href="#p" fill="#000000" />
<use x="228" y="360" xlink:href="#p" fill="#000000" />
<use x="252" y="360" xlink:href="#p" fill="#000000" />
<use x="264" y="360" xlink:href="#p" fill="#000000" />
<use x="276" y="360" xlink:href="#p" fill="#000000" />
<use x="300" y="360" xlink:href="#p" fill="#000000" />
<use x="384" y="360" xlink:href="#p" fill="#000000" />
<use x="396" y="360" xlink:href="#p" fill="#000000" />
<use x="408" y="360" xlink:href="#p" fill="#000000" />
<use x="432" y="360" xlink:href="#p" fill="#000000" />
<use x="468" y="360" xlink:href="#p" fill="#000000" />
<use x="492" y="360" xlink:href="#p" fill="#000000" />
<use x="504" y="360" xlink:href="#p" fill="#000000" />
<use x="48" y="372" xlink:href="#p" fill="#000000" />
<use x="60" y="372" xlink:href="#p" fill="#000000" />
<use x="144" y="372" xlink:href="#p" fill="#000000" />
<use x="156" y="372" xlink:href="#p" fill="#000000" />
<use x="168" y="372" xlink:href="#p" fill="#000000" />
<use x="204" y="372" xlink:href="#p" fill="#000000" />
<use x="252" y="372" xlink:href="#p" fill="#000000" />
<use x="264" y="372" xlink:href="#p" fill="#000000" />
<use x="324" y="372" xlink:href="#p" fill="#000000" />
<use x="336" y="372" xlink:href="#p" fill="#000000" />
<use x="348" y="372" xlink:href="#p" fill="#000000" />
<use x="384" y="372" xlink:href="#p" fill="#000000" />
<use x="396" y="372" xlink:href="#p" fill="#000000" />
<use x="408" y="372" xlink:href="#p" fill="#000000" />
<use x="468" y="372" xlink:href="#p" fill="#000000" />
<use x="480" y="372" xlink:href="#p" fill="#000000" />
<use x="492" y="372" xlink:href="#p" fill="#000000" />
<use x="24" y="384" xlink:href="#p" fill="#000000" />
<use x="48" y="384" xlink:href="#p" fill="#000000" />
<use x="72" y="384" xlink:href="#p" fill="#000000" />
<use x="96" y="384" xlink:href="#p" fill="#000000" />
<use x="108" y="384" xlink:href="#p" fill="#000000" />
<use x="132" y="384" xlink:href="#p" fill="#000000" />
<use x="156" y="384" xlink:href="#p" fill="#000000" />
<use x="192" y="384" xlink:href="#p" fill="#000000" />
<use x="204" y="384" xlink:href="#p" fill="#000000" />
<use x="216" y="384" xlink:href="#p" fill="#000000" />
<use x="228" y="384" xlink:href="#p" fill="#000000" />
<use x="240" y="384" xlink:href="#p" fill="#000000" />
<use x="252" y="384" xlink:href="#p" fill="#000000" />
<use x="312" y="384" xlink:href="#p" fill="#000000" />
<use x="396" y="384" xlink:href="#p" fill="#000000" />
<use x="408" y="384" xlink:href="#p" fill="#000000" />
<use x="468" y="384" xlink:href="#p" fill="#000000" />
<use x="480" y="384" xlink:href="#p" fill="#000000" />
<use x="36" y="396" xlink:href="#p" fill="#000000" />
<use x="72" y="396" xlink:href="#p" fill="#000000" />
<use x="108" y="396" xlink:href="#p" fill="#000000" />
<use x="120" y="396" xlink:href="#p" fill="#000000" />
<use x="132" y="396" xlink:href="#p" fill="#000000" />
<use x="144" y="396" xlink:href="#p" fill="#000000" />
<use x="156" y="396" xlink:href="#p" fill="#000000" />
<use x="180" y="396" xlink:href="#p" fill="#000000" />
<use x="204" y="396" xlink:href="#p" fill="#000000" />
<use x="228" y="396" xlink:href="#p" fill="#000000" />
<use x="240" y="396" xlink:href="#p" fill="#000000" />
<use x="252" y="396" xlink:href="#p" fill="#000000" />
<use x="264" y="396" xlink:href="#p" fill="#000000" />
<use x="276" y="396" xlink:href="#p" fill="#000000" />
<use x="300" y="396" xlink:href="#p" fill="#000000" />
<use x="312" y="396" xlink:href="#p" fill="#000000" />
<use x="324" y="396" xlink:href="#p" fill="#000000" />
<use x="348" y="396" xlink:href="#p" fill="#000000" />
<use x="408" y="396" xlink:href="#p" fill="#000000" />
<use x="420" y="396" xlink:href="#p" fill="#000000" />
<use x="432" y="396" xlink:href="#p" fill="#000000" />
<use x="456" y="396" xlink:href="#p" fill="#000000" />
<use x="468" y="396" xlink:href="#p" fill="#000000" />
<use x="492" y="396" xlink:href="#p" fill="#000000" />
<use x="24" y="408" xlink:href="#p" fill="#000000" />
<use x="48" y="408" xlink:href="#p" fill="#000000" />
<use x="60" y="408" xlink:href="#p" fill="#000000" />
<use x="72" y="408" xlink:href="#p" fill="#000000" />
<use x="96" y="408" xlink:href="#p" fill="#000000" />
<use x="108" y="408" xlink:href="#p" fill="#000000" />
<use x="144" y="408" xlink:href="#p" fill="#000000" />
<use x="180" y="408" xlink:href="#p" fill="#000000" />
<use x="192" y="408" xlink:href="#p" fill="#000000" />
<use x="216" y="408" xlink:href="#p" fill="#000000" />
<use x="228" y="408" xlink:href="#p" fill="#000000" />
<use x="240" y="408" xlink:href="#p" fill="#000000" />
<use x="252" y="408" xlink:href="#p" fill="#000000" />
<use x="264" y="408" xlink:href="#p" fill="#000000" />
<use x="288" y="408" xlink:href="#p" fill="#000000" />
<use x="300" y="408" xlink:href="#p" fill="#000000" />
<use x="324" y="408" xlink:href="#p" fill="#000000" />
<use x="336" y="408" xlink:href="#p" fill="#000000" />
<use x="360" y="408" xlink:href="#p" fill="#000000" />
<use x="396" y="408" xlink:href="#p" fill="#000000" />
<use x="408" y="408" xlink:href="#p" fill="#000000" />
<use x="420" y="408" xlink:href="#p" fill="#000000" />
<use x="432" y="408" xlink:href="#p" fill="#000000" />
<use x="444" y="408" xlink:href="#p" fill="#000000" />
<use x="456" y="408" xlink:href="#p" fill="#000000" />
<use x="492" y="408" xlink:href="#p" fill="#000000" />
<use x="120" y="420" xlink:href="#p" fill="#000000" />
<use x="168" y="420" xlink:href="#p" fill="#000000" />
<use x="180" y="420" xlink:href="#p" fill="#000000" />
<use x="204" y="420" xlink:href="#p" fill="#000000" />
<use x="252" y="420" xlink:href="#p" fill="#000000" />
<use x="264" y="420" xlink:href="#p" fill="#000000" />
<use x="288" y="420" xlink:href="#p" fill="#000000" />
<use x="312" y="420" xlink:href="#p" fill="#000000" />
<use x="396" y="420" xlink:href="#p" fill="#000000" />
<use x="408" y="420" xlink:href="#p" fill="#000000" />
<use x="456" y="420" xlink:href="#p" fill="#000000" />
<use x="480" y="420" xlink:href="#p" fill="#000000" />
<use x="504" y="420" xlink:href="#p" fill="#000000" />
<use x="24" y="432" xlink:href="#p" fill="#000000" />
<use x="36" y="432" xlink:href="#p" fill="#000000" />
<use x="48" y="432" xlink:href="#p" fill="#000000" />
<use x="60" y="432" xlink:href="#p" fill="#000000" />
<use x="72" y="432" xlink:href="#p" fill="#000000" />
<use x="84" y="432" xlink:href="#p" fill="#000000" />
<use x="96" y="432" xlink:href="#p" fill="#000000" />
<use x="156" y="432" xlink:href="#p" fill="#000000" />
<use x="168" y="432" xlink:href="#p" fill="#000000" />
<use x="192" y="432" xlink:href="#p" fill="#000000" />
<use x="204" y="432" xlink:href="#p" fill="#000000" />
<use x="240" y="432" xlink:href="#p" fill="#000000" />
<use x="252" y="432" xlink:href="#p" fill="#000000" />
<use x="264" y="432" xlink:href="#p" fill="#000000" />
<use x="288" y="432" xlink:href="#p" fill="#000000" />
<use x="300" y="432" xlink:href="#p" fill="#000000" />
<use x="336" y="432" xlink:href="#p" fill="#000000" />
<use x="348" y="432" xlink:href="#p" fill="#000000" />
<use x="360" y="432" xlink:href="#p" fill="#000000" />
<use x="372" y="432" xlink:href="#p" fill="#000000" />
<use x="408" y="432" xlink:href="#p" fill="#000000" />
<use x="432" y="432" xlink:href="#p" fill="#000000" />
<use x="456" y="432" xlink:href="#p" fill="#000000" />
<use x="492" y="432" xlink:href="#p" fill="#000000" />
<use x="504" y="432" xlink:href="#p" fill="#000000" />
<use x="24" y="444" xlink:href="#p" fill="#000000" />
<use x="96" y="444" xlink:href="#p" fill="#000000" />
<use x="120" y="444" xlink:href="#p" fill="#000000" />
<use x="144" y="444" xlink:href="#p" fill="#000000" />
<use x="156" y="444" xlink:href="#p" fill="#000000" />
<use x="180" y="444" xlink:href="#p" fill="#000000" />
<use x="216" y="444" xlink:href="#p" fill="#000000" />
<use x="228" y="444" xlink:href="#p" fill="#000000" />
<use x="252" y="444" xlink:href="#p" fill="#000000" />
<use x="288" y="444" xlink:href="#p" fill="#000000" />
<use x="300" y="444" xlink:href="#p" fill="#000000" />
<use x="312" y="444" xlink:href="#p" fill="#000000" />
<use x="324" y="444" xlink:href="#p" fill="#000000" />
<use x="348" y="444" xlink:href="#p" fill="#000000" />
<use x="360" y="444" xlink:href="#p" fill="#000000" />
<use x="396" y="444" xlink:href="#p" fill="#000000" />
<use x="408" y="444" xlink:href="#p" fill="#000000" />
<use x="456" y="444" xlink:href="#p" fill="#000000" />
<use x="24" y="456" xlink:href="#p" fill="#000000" />
<use x="48" y="456" xlink:href="#p" fill="#000000" />
<use x="60" y="456" xlink:href="#p" fill="#000000" />
<use x="72" y="456" xlink:href="#p" fill="#000000" />
<use x="96" y="456" xlink:href="#p" fill="#000000" />
<use x="120" y="456" xlink:href="#p" fill="#000000" />
<use x="216" y="456" xlink:href="#p" fill="#000000" />
<use x="240" y="456" xlink:href="#p" fill="#000000" />
<use x="252" y="456" xlink:href="#p" fill="#000000" />
<use x="300" y="456" xlink:href="#p" fill="#000000" />
<use x="324" y="456" xlink:href="#p" fill="#000000" />
<use x="336" y="456" xlink:href="#p" fill="#000000" />
<use x="348" y="456" xlink:href="#p" fill="#000000" />
<use x="408" y="456" xlink:href="#p" fill="#000000" />
<use x="420" y="456" xlink:href="#p" fill="#000000" />
<use x="432" y="456" xlink:href="#p" fill="#000000" />
<use x="444" y="456" xlink:href="#p" fill="#000000" />
<use x="456" y="456" xlink:href="#p" fill="#000000" />
<use x="24" y="468" xlink:href="#p" fill="#000000" />
<use x="48" y="468" xlink:href="#p" fill="#000000" />
<use x="60" y="468" xlink:href="#p" fill="#000000" />
<use x="72" y="468" xlink:href="#p" fill="#000000" />
<use x="96" y="468" xlink:href="#p" fill="#000000" />
<use x="144" y="468" xlink:href="#p" fill="#000000" />
<use x="156" y="468" xlink:href="#p" fill="#000000" />
<use x="180" y="468" xlink:href="#p" fill="#000000" />
<use x="192" y="468" xlink:href="#p" fill="#000000" />
<use x="204" y="468" xlink:href="#p" fill="#000000" />
<use x="216" y="468" xlink:href="#p" fill="#000000" />
<use x="240" y="468" xlink:href="#p" fill="#000000" />
<use x="252" y="468" xlink:href="#p" fill="#000000" />
<use x="264" y="468" xlink:href="#p" fill="#000000" />
<use x="288" y="468" xlink:href="#p" fill="#000000" />
<use x="312" y="468" xlink:href="#p" fill="#000000" />
<use x="336" y="468" xlink:href="#p" fill="#000000" />
<use x="348" y="468" xlink:href="#p" fill="#000000" />
<use x="408" y="468" xlink:href="#p" fill="#000000" />
<use x="420" y="468" xlink:href="#p" fill="#000000" />
<use x="456" y="468" xlink:href="#p" fill="#000000" />
<use x="480" y="468" xlink:href="#p" fill="#000000" />
<use x="24" y="480" xlink:href="#p" fill="#000000" />
<use x="48" y="480" xlink:href="#p" fill="#000000" />
<use x="60" y="480" xlink:href="#p" fill="#000000" />
<use x="72" y="480" xlink:href="#p" fill="#000000" />
<use x="96" y="480" xlink:href="#p" fill="#000000" />
<use x="120" y="480" xlink:href="#p" fill="#000000" />
<use x="132" y="480" xlink:href="#p" fill="#000000" />
<use x="144" y="480" xlink:href="#p" fill="#000000" />
<use x="168" y="480" xlink:href="#p" fill="#000000" />
<use x="204" y="480" xlink:href="#p" fill="#000000" />
<use x="228" y="480" xlink:href="#p" fill="#000000" />
<use x="276" y="480" xlink:href="#p" fill="#000000" />
<use x="288" y="480" xlink:href="#p" fill="#000000" />
<use x="336" y="480" xlink:href="#p" fill="#000000" />
<use x="360" y="480" xlink:href="#p" fill="#000000" />
<use x="372" y="480" xlink:href="#p" fill="#000000" />
<use x="396" y="480" xlink:href="#p" fill="#000000" />
<use x="408" y="480" xlink:href="#p" fill="#000000" />
<use x="444" y="480" xlink:href="#p" fill="#000000" />
<use x="456" y="480" xlink:href="#p" fill="#000000" />
<use x="504" y="480" xlink:href="#p" fill="#000000" />
<use x="24" y="492" xlink:href="#p" fill="#000000" />
<use x="96" y="492" xlink:href="#p" fill="#000000" />
<use x="144" y="492" xlink:href="#p" fill="#000000" />
<use x="156" y="492" xlink:href="#p" fill="#000000" />
<use x="192" y="492" xlink:href="#p" fill="#000000" />
<use x="204" y="492" xlink:href="#p" fill="#000000" />
<use x="240" y="492" xlink:href="#p" fill="#000000" />
<use x="276" y="492" xlink:href="#p" fill="#000000" />
<use x="336" y="492" xlink:href="#p" fill="#000000" />
<use x="348" y="492" xlink:href="#p" fill="#000000" />
<use x="372" y="492" xlink:href="#p" fill="#000000" />
<use x="396" y="492" xlink:href="#p" fill="#000000" />
<use x="408" y="492" xlink:href="#p" fill="#000000" />
<use x="432" y="492" xlink:href="#p" fill="#000000" />
<use x="444" y="492" xlink:href="#p" fill="#000000" />
<use x="480" y="492" xlink:href="#p" fill="#000000" />
<use x="492" y="492" xlink:href="#p" fill="#000000" />
<use x="24" y="504" xlink:href="#p" fill="#000000" />
<use x="36" y="504" xlink:href="#p" fill="#000000" />
<use x="48" y="504" xlink:href="#p" fill="#000000" />
<use x="60" y="504" xlink:href="#p" fill="#000000" />
<use x="72" y="504" xlink:href="#p" fill="#000000" />
<use x="84" y="504" xlink:href="#p" fill="#000000" />
<use x="96" y="504" xlink:href="#p" fill="#000000" />
<use x="132" y="504" xlink:href="#p" fill="#000000" />
<use x="168" y="504" xlink:href="#p" fill="#000000" />
<use x="180" y="504" xlink:href="#p" fill="#000000" />
<use x="192" y="504" xlink:href="#p" fill="#000000" />
<use x="204" y="504" xlink:href="#p" fill="#000000" />
<use x="216" y="504" xlink:href="#p" fill="#000000" />
<use x="228" y="504" xlink:href="#p" fill="#000000" />
<use x="240" y="504" xlink:href="#p" fill="#000000" />
<use x="252" y="504" xlink:href="#p" fill="#000000" />
<use x="300" y="504" xlink:href="#p" fill="#000000" />
<use x="324" y="504" xlink:href="#p" fill="#000000" />
<use x="360" y="504" xlink:href="#p" fill="#000000" />
<use x="372" y="504" xlink:href="#p" fill="#000000" />
<use x="408" y="504" xlink:href="#p" fill="#000000" />
<use x="420" y="504" xlink:href="#p" fill="#000000" />
<use x="432" y="504" xlink:href="#p" fill="#000000" />
<use x="444" y="504" xlink:href="#p" fill="#000000" />
<use x="456" y="504" xlink:href="#p" fill="#000000" />
<use x="480" y="504" xlink:href="#p" fill="#000000" />
<use x="492" y="504" xlink:href="#p" fill="#000000" />
<use x="504" y="504" xlink:href="#p" fill="#000000" />
</g>
</svg>